<svg xmlns="http://www.w3.org/2000/svg" version="1.1" xmlns:xlink="http://www.w3.org/1999/xlink" xmlns:svgjs="http://svgjs.dev/svgjs" width="1500" height="1500" viewBox="0 0 1500 1500"><rect width="1500" height="1500" fill="#ffffff"></rect><g transform="matrix(0.6666666666666666,0,0,0.6666666666666666,249.39393939393932,520.6137481864945)"><svg viewBox="0 0 396 181" data-background-color="#ffffff" preserveAspectRatio="xMidYMid meet" height="685" width="1500" xmlns="http://www.w3.org/2000/svg" xmlns:xlink="http://www.w3.org/1999/xlink"><g id="tight-bounds" transform="matrix(1,0,0,1,0.24000000000003752,0.4173246238930659)"><svg viewBox="0 0 395.5199999999999 180.16535075221387" height="180.16535075221387" width="395.5199999999999"><g><svg viewBox="0 0 397.49759999999986 181.0661775059749" height="180.16535075221387" width="395.5199999999999"><g><rect width="397.49759999999986" height="3.148034937138075" x="0" y="97.68672198316318" fill="#636365" opacity="1" stroke-width="0" stroke="transparent" fill-opacity="1" class="rect-yte-0" data-fill-palette-color="primary" rx="1%" id="yte-0" data-palette-color="#636365"></rect></g><g><rect width="397.49759999999986" height="3.148034937138075" x="0" y="104.95522149770713" fill="#636365" opacity="1" stroke-width="0" stroke="transparent" fill-opacity="1" class="rect-yte-1" data-fill-palette-color="primary" rx="1%" id="yte-1" data-palette-color="#636365"></rect></g><g transform="matrix(1,0,0,1,0.9887999999999693,116.34418558965692)"><svg viewBox="0 0 395.5199999999999 64.72199191631799" height="64.72199191631799" width="395.5199999999999"><g id="textblocktransform"><svg viewBox="0 0 395.5199999999999 64.72199191631799" height="64.72199191631799" width="395.5199999999999" id="textblock"><g><svg viewBox="0 0 395.5199999999999 34.90794979079497" height="34.90794979079497" width="395.5199999999999"><g transform="matrix(1,0,0,1,0,0)"><svg width="395.5199999999999" viewBox="-1.2 -32.4 373.40999999999997 32.96" height="34.90794979079497" data-palette-color="#636365"><path d="M25.9-31.86L19.14 0 15.8 0 18.9-14.75 5.25-14.75 2.15 0-1.2 0 5.54-31.86 8.91-31.86 5.86-17.6 19.51-17.6 22.56-31.86 25.9-31.86ZM50.63-11.3L50.63-11.3Q50.05-8.64 48.74-6.47 47.43-4.3 45.54-2.75 43.65-1.2 41.25-0.32 38.84 0.56 36.13 0.56L36.13 0.56Q33.49 0.56 31.49-0.32 29.49-1.2 28.24-2.75 27-4.3 26.6-6.47 26.19-8.64 26.8-11.3L26.8-11.3Q27.34-13.89 28.67-16.13 30-18.36 31.89-19.93 33.79-21.51 36.19-22.4 38.6-23.29 41.23-23.29L41.23-23.29Q43.94-23.29 45.94-22.4 47.95-21.51 49.19-19.93 50.44-18.36 50.82-16.13 51.19-13.89 50.63-11.3ZM47.29-11.3L47.29-11.3Q47.7-13.26 47.47-14.9 47.24-16.55 46.36-17.8 45.48-19.04 44.04-19.75 42.6-20.46 40.6-20.46L40.6-20.46Q38.6-20.46 36.84-19.75 35.08-19.04 33.74-17.8 32.39-16.55 31.47-14.9 30.54-13.26 30.15-11.3L30.15-11.3Q29.68-9.35 29.92-7.7 30.15-6.05 30.99-4.86 31.83-3.66 33.29-2.98 34.74-2.29 36.74-2.29L36.74-2.29Q38.74-2.29 40.49-2.98 42.23-3.66 43.61-4.86 44.99-6.05 45.92-7.7 46.85-9.35 47.29-11.3ZM79.49-22.29L77.83-19.56Q76.19-20.46 73.68-20.46L73.68-20.46Q71.63-20.46 69.86-19.58 68.09-18.7 66.66-17.27 65.23-15.84 64.23-14 63.23-12.16 62.84-10.21L62.84-10.21 61.27-2.86 66.43-2.86 65.84 0 52.19 0 52.78-2.86 57.93-2.86 61.54-19.9 56.39-19.9 56.98-22.75 65.47-22.75 64.28-17.04Q67.94-23.29 74.34-23.29L74.34-23.29Q76.09-23.29 77.31-23.07 78.54-22.85 79.49-22.29L79.49-22.29ZM99.87-31.86L98.92-27.29 94.38-27.29 95.33-31.86 99.87-31.86ZM98.28-2.86L97.67 0 84.03 0 84.64-2.86 89.79-2.86 93.38-19.9 88.22-19.9 88.84-22.75 97.33-22.75 93.13-2.86 98.28-2.86ZM130.31-9.11L128.41 0 107.92 0 108.51-2.86 127.63-19.9 115.03-19.9 113.71-13.65 110.88-13.65 112.76-22.75 132.68-22.75 132.07-19.9 112.98-2.86 126.16-2.86 127.48-9.11 130.31-9.11ZM159.8-11.3L159.8-11.3Q159.22-8.64 157.91-6.47 156.6-4.3 154.71-2.75 152.82-1.2 150.41-0.32 148.01 0.56 145.3 0.56L145.3 0.56Q142.66 0.56 140.66-0.32 138.66-1.2 137.41-2.75 136.17-4.3 135.77-6.47 135.36-8.64 135.97-11.3L135.97-11.3Q136.51-13.89 137.84-16.13 139.17-18.36 141.06-19.93 142.96-21.51 145.36-22.4 147.77-23.29 150.4-23.29L150.4-23.29Q153.11-23.29 155.11-22.4 157.12-21.51 158.36-19.93 159.61-18.36 159.99-16.13 160.36-13.89 159.8-11.3ZM156.46-11.3L156.46-11.3Q156.87-13.26 156.64-14.9 156.41-16.55 155.53-17.8 154.65-19.04 153.21-19.75 151.77-20.46 149.77-20.46L149.77-20.46Q147.77-20.46 146.01-19.75 144.25-19.04 142.91-17.8 141.56-16.55 140.64-14.9 139.71-13.26 139.32-11.3L139.32-11.3Q138.85-9.35 139.09-7.7 139.32-6.05 140.16-4.86 141-3.66 142.46-2.98 143.91-2.29 145.91-2.29L145.91-2.29Q147.91-2.29 149.66-2.98 151.4-3.66 152.78-4.86 154.16-6.05 155.09-7.7 156.02-9.35 156.46-11.3ZM185.85-14.04L182.9 0 179.55 0 182.5-14.04Q183.16-17.09 182.19-18.77 181.21-20.46 178.26-20.46L178.26-20.46Q176.4-20.46 174.73-19.6 173.06-18.75 171.7-17.32 170.35-15.89 169.41-14.05 168.47-12.21 168.05-10.21L168.05-10.21 165.9 0 162.56 0 167.34-22.75 170.71-22.75 169.52-17.04Q173.25-23.29 179.45-23.29L179.45-23.29Q187.85-23.29 185.85-14.04L185.85-14.04ZM239.63-8.3L239.63-8.3Q239.19-6.3 238.02-4.68 236.85-3.05 235.2-1.88 233.55-0.71 231.62-0.07 229.69 0.56 227.74 0.56L227.74 0.56Q225.03 0.56 223.01-0.44 221-1.44 220.1-3.39L220.1-3.39 219.39 0 216.53 0 218.58-9.69 221.44-9.69Q221.1-8.06 221.55-6.7 222-5.35 222.97-4.37 223.93-3.39 225.33-2.84 226.74-2.29 228.35-2.29L228.35-2.29Q229.74-2.29 231.03-2.7 232.33-3.1 233.38-3.85 234.43-4.59 235.19-5.66 235.94-6.74 236.23-8.11L236.23-8.11Q236.6-9.64 236.15-10.74 235.7-11.84 234.72-12.62 233.74-13.4 232.44-13.95 231.13-14.5 229.79-15.04L229.79-15.04Q228.18-15.65 226.6-16.32 225.03-16.99 223.86-18.02 222.69-19.04 222.16-20.52 221.64-22 222.1-24.19L222.1-24.19Q222.54-26.15 223.69-27.67 224.83-29.2 226.41-30.25 227.98-31.3 229.86-31.85 231.74-32.4 233.65-32.4L233.65-32.4Q235.94-32.4 237.71-31.45 239.48-30.49 240.19-28.54L240.19-28.54 240.9-31.86 243.83-31.86 241.9-22.75 238.94-22.75Q239.24-24.19 238.91-25.45 238.58-26.71 237.76-27.6 236.94-28.49 235.72-29.02 234.5-29.54 233.04-29.54L233.04-29.54Q231.74-29.54 230.52-29.25 229.3-28.96 228.28-28.31 227.25-27.66 226.49-26.64 225.74-25.61 225.44-24.19L225.44-24.19Q225.2-22.95 225.64-22.07 226.08-21.19 226.98-20.52 227.89-19.85 229.14-19.3 230.4-18.75 231.74-18.19L231.74-18.19Q233.38-17.55 235.01-16.77 236.65-15.99 237.82-14.89 238.99-13.79 239.57-12.19 240.14-10.6 239.63-8.3ZM264.04-5.96L266.04-4.35Q264.09-2.1 261.31-0.77 258.52 0.56 255.08 0.56L255.08 0.56Q252.44 0.56 250.42-0.32 248.39-1.2 247.13-2.77 245.88-4.35 245.45-6.52 245.02-8.69 245.63-11.35L245.63-11.35Q246.19-13.94 247.46-16.15 248.73-18.36 250.55-19.93 252.37-21.51 254.73-22.4 257.08-23.29 259.74-23.29L259.74-23.29Q260.79-23.29 261.82-23.05 262.84-22.8 263.71-22.3 264.58-21.8 265.2-21.11 265.82-20.41 266.04-19.46L266.04-19.46 266.73-22.75 269.73-22.75 267.82-13.65 264.82-13.65Q265.14-15.16 264.86-16.41 264.58-17.65 263.81-18.55 263.04-19.46 261.81-19.96 260.57-20.46 259.08-20.46L259.08-20.46Q257.03-20.46 255.36-19.75 253.69-19.04 252.41-17.82 251.12-16.6 250.26-14.95 249.39-13.31 248.98-11.35L248.98-11.35Q248.54-9.4 248.78-7.75 249.03-6.1 249.9-4.91 250.78-3.71 252.24-3 253.69-2.29 255.69-2.29L255.69-2.29Q258.23-2.29 260.43-3.3 262.62-4.3 264.04-5.96L264.04-5.96ZM295.02-14.04L292.06 0 288.72 0 291.67-14.04Q292.33-17.09 291.36-18.77 290.38-20.46 287.43-20.46L287.43-20.46Q285.57-20.46 283.9-19.6 282.23-18.75 280.87-17.32 279.52-15.89 278.58-14.05 277.64-12.21 277.22-10.21L277.22-10.21 275.07 0 271.73 0 278.47-31.86 281.84-31.86 278.69-17.04Q282.42-23.29 288.62-23.29L288.62-23.29Q297.02-23.29 295.02-14.04L295.02-14.04ZM323.56-11.3L323.56-11.3Q322.97-8.64 321.66-6.47 320.36-4.3 318.47-2.75 316.57-1.2 314.17-0.32 311.76 0.56 309.05 0.56L309.05 0.56Q306.42 0.56 304.42-0.32 302.41-1.2 301.17-2.75 299.92-4.3 299.52-6.47 299.12-8.64 299.73-11.3L299.73-11.3Q300.27-13.89 301.6-16.13 302.93-18.36 304.82-19.93 306.71-21.51 309.12-22.4 311.52-23.29 314.16-23.29L314.16-23.29Q316.87-23.29 318.87-22.4 320.87-21.51 322.12-19.93 323.36-18.36 323.74-16.13 324.12-13.89 323.56-11.3ZM320.21-11.3L320.21-11.3Q320.63-13.26 320.39-14.9 320.16-16.55 319.28-17.8 318.41-19.04 316.96-19.75 315.52-20.46 313.52-20.46L313.52-20.46Q311.52-20.46 309.76-19.75 308-19.04 306.66-17.8 305.32-16.55 304.39-14.9 303.46-13.26 303.07-11.3L303.07-11.3Q302.61-9.35 302.84-7.7 303.07-6.05 303.92-4.86 304.76-3.66 306.21-2.98 307.66-2.29 309.66-2.29L309.66-2.29Q311.67-2.29 313.41-2.98 315.16-3.66 316.54-4.86 317.92-6.05 318.84-7.7 319.77-9.35 320.21-11.3ZM350.85-11.3L350.85-11.3Q350.26-8.64 348.96-6.47 347.65-4.3 345.76-2.75 343.87-1.2 341.46-0.32 339.06 0.56 336.35 0.56L336.35 0.56Q333.71 0.56 331.71-0.32 329.71-1.2 328.46-2.75 327.22-4.3 326.81-6.47 326.41-8.64 327.02-11.3L327.02-11.3Q327.56-13.89 328.89-16.13 330.22-18.36 332.11-19.93 334-21.51 336.41-22.4 338.81-23.29 341.45-23.29L341.45-23.29Q344.16-23.29 346.16-22.4 348.16-21.51 349.41-19.93 350.65-18.36 351.03-16.13 351.41-13.89 350.85-11.3ZM347.5-11.3L347.5-11.3Q347.92-13.26 347.69-14.9 347.46-16.55 346.58-17.8 345.7-19.04 344.26-19.75 342.82-20.46 340.81-20.46L340.81-20.46Q338.81-20.46 337.05-19.75 335.3-19.04 333.95-17.8 332.61-16.55 331.68-14.9 330.76-13.26 330.37-11.3L330.37-11.3Q329.9-9.35 330.13-7.7 330.37-6.05 331.21-4.86 332.05-3.66 333.5-2.98 334.96-2.29 336.96-2.29L336.96-2.29Q338.96-2.29 340.7-2.98 342.45-3.66 343.83-4.86 345.21-6.05 346.14-7.7 347.06-9.35 347.5-11.3ZM371.21-2.86L370.6 0 356.95 0 357.56-2.86 362.71-2.86 368.25-29 363.1-29 363.71-31.86 372.21-31.86 366.06-2.86 371.21-2.86Z" opacity="1" transform="matrix(1,0,0,1,0,0)" fill="#636365" class="wordmark-text-0" data-fill-palette-color="primary" id="text-0"></path></svg></g></svg></g><g transform="matrix(1,0,0,1,0,43.14887894560669)"><svg viewBox="0 0 395.5199999999999 21.573112970711293" height="21.573112970711293" width="395.5199999999999"><g transform="matrix(1,0,0,1,0,0)"><svg width="395.5199999999999" viewBox="1.63 -33.48 785.6 42.86" height="21.573112970711293" data-palette-color="#89939e"><path d="M18.48-18.38L14.83 0 8.22 0 1.63-31.95 5.88-31.95 10.53-8.08 11.4-3.48 11.85-3.48 12.7-8.08 17.38-31.13 23.5-31.13 28.18-8.08 29.03-3.48 29.48-3.48 30.38-8.08 35.02-31.95 39.23-31.95 32.65 0 26.1 0 22.4-18.38 20.65-27.7 20.25-27.7 18.48-18.38ZM74.8-15.63L74.8 0 70.75 0 70.75-15.18Q70.75-17.15 70.21-18.57 69.68-20 68.46-20.79 67.25-21.58 65.15-21.58L65.15-21.58Q63.23-21.58 61.83-20.85 60.43-20.13 59.56-18.89 58.7-17.65 58.35-16.07L58.35-16.07 57.45-18.95 58.5-18.95Q58.88-20.6 59.88-21.96 60.88-23.33 62.56-24.14 64.25-24.95 66.68-24.95L66.68-24.95Q69.58-24.95 71.36-23.85 73.15-22.75 73.98-20.69 74.8-18.63 74.8-15.63L74.8-15.63ZM58.48-17.85L58.48 0 54.43 0 54.43-33.13 58.45-33.13 58.45-25.18 58.33-18.18 58.48-17.85ZM101.58 0.55L101.58 0.55Q96 0.55 93.18-2.18 90.35-4.9 90.35-9.98L90.35-9.98 90.35-14.33Q90.35-19.48 92.98-22.26 95.6-25.05 100.65-25.05L100.65-25.05Q104.05-25.05 106.33-23.79 108.6-22.53 109.75-20.2 110.9-17.88 110.9-14.65L110.9-14.65 110.9-13.75Q110.9-12.95 110.84-12.15 110.78-11.35 110.68-10.58L110.68-10.58 106.95-10.58Q107-11.78 107.02-12.85 107.03-13.93 107.03-14.83L107.03-14.83Q107.03-17.05 106.32-18.59 105.6-20.13 104.19-20.94 102.78-21.75 100.65-21.75L100.65-21.75Q97.5-21.75 95.93-19.93 94.35-18.1 94.35-14.7L94.35-14.7 94.35-12.38 94.38-11.88 94.38-9.55Q94.38-8.03 94.83-6.8 95.28-5.58 96.24-4.69 97.2-3.8 98.69-3.34 100.18-2.88 102.23-2.88L102.23-2.88Q104.6-2.88 106.65-3.5 108.7-4.13 110.5-5.2L110.5-5.2 110.13-1.7Q108.5-0.68 106.35-0.06 104.2 0.55 101.58 0.55ZM109.83-13.63L109.83-10.58 92.48-10.58 92.48-13.63 109.83-13.63ZM130.4-14.93L130.4-14.93 129.48-18.05 130.48-18.1Q131.28-21.2 133.23-22.99 135.18-24.78 138.4-24.78L138.4-24.78Q139.2-24.78 139.84-24.65 140.48-24.53 140.98-24.35L140.98-24.35 141.23-20.43Q140.6-20.63 139.84-20.75 139.08-20.88 138.15-20.88L138.15-20.88Q135.4-20.88 133.37-19.35 131.33-17.82 130.4-14.93ZM130.6-16.9L130.6 0 126.55 0 126.55-24.4 130.5-24.4 130.3-17.2 130.6-16.9ZM165.71 0.55L165.71 0.55Q160.13 0.55 157.31-2.18 154.48-4.9 154.48-9.98L154.48-9.98 154.48-14.33Q154.48-19.48 157.11-22.26 159.73-25.05 164.78-25.05L164.78-25.05Q168.18-25.05 170.46-23.79 172.73-22.53 173.88-20.2 175.03-17.88 175.03-14.65L175.03-14.65 175.03-13.75Q175.03-12.95 174.97-12.15 174.91-11.35 174.81-10.58L174.81-10.58 171.08-10.58Q171.13-11.78 171.14-12.85 171.16-13.93 171.16-14.83L171.16-14.83Q171.16-17.05 170.44-18.59 169.73-20.13 168.32-20.94 166.91-21.75 164.78-21.75L164.78-21.75Q161.63-21.75 160.06-19.93 158.48-18.1 158.48-14.7L158.48-14.7 158.48-12.38 158.51-11.88 158.51-9.55Q158.51-8.03 158.96-6.8 159.41-5.58 160.37-4.69 161.33-3.8 162.82-3.34 164.31-2.88 166.36-2.88L166.36-2.88Q168.73-2.88 170.78-3.5 172.83-4.13 174.63-5.2L174.63-5.2 174.26-1.7Q172.63-0.68 170.48-0.06 168.33 0.55 165.71 0.55ZM173.96-13.63L173.96-10.58 156.61-10.58 156.61-13.63 173.96-13.63ZM224.13 0L224.13 0 216.23 0 216.23-3.5 223.98-3.5Q228.23-3.5 230.37-5.81 232.51-8.13 232.51-12.43L232.51-12.43 232.51-19.55Q232.51-23.88 230.37-26.18 228.23-28.48 223.98-28.48L223.98-28.48 216.21-28.48 216.21-31.95 224.13-31.95Q230.33-31.95 233.51-28.76 236.68-25.58 236.68-19.58L236.68-19.58 236.68-12.4Q236.68-6.43 233.51-3.21 230.33 0 224.13 0ZM217.53-31.95L217.53 0 213.43 0 213.43-31.95 217.53-31.95ZM256.64-14.93L256.64-14.93 255.71-18.05 256.71-18.1Q257.51-21.2 259.46-22.99 261.41-24.78 264.64-24.78L264.64-24.78Q265.44-24.78 266.07-24.65 266.71-24.53 267.21-24.35L267.21-24.35 267.46-20.43Q266.84-20.63 266.07-20.75 265.31-20.88 264.39-20.88L264.39-20.88Q261.64-20.88 259.6-19.35 257.56-17.82 256.64-14.93ZM256.84-16.9L256.84 0 252.79 0 252.79-24.4 256.74-24.4 256.54-17.2 256.84-16.9ZM291.94 0.55L291.94 0.55Q286.36 0.55 283.54-2.18 280.71-4.9 280.71-9.98L280.71-9.98 280.71-14.33Q280.71-19.48 283.34-22.26 285.96-25.05 291.01-25.05L291.01-25.05Q294.41-25.05 296.69-23.79 298.96-22.53 300.11-20.2 301.26-17.88 301.26-14.65L301.26-14.65 301.26-13.75Q301.26-12.95 301.2-12.15 301.14-11.35 301.04-10.58L301.04-10.58 297.31-10.58Q297.36-11.78 297.37-12.85 297.39-13.93 297.39-14.83L297.39-14.83Q297.39-17.05 296.67-18.59 295.96-20.13 294.55-20.94 293.14-21.75 291.01-21.75L291.01-21.75Q287.86-21.75 286.29-19.93 284.71-18.1 284.71-14.7L284.71-14.7 284.71-12.38 284.74-11.88 284.74-9.55Q284.74-8.03 285.19-6.8 285.64-5.58 286.6-4.69 287.56-3.8 289.05-3.34 290.54-2.88 292.59-2.88L292.59-2.88Q294.96-2.88 297.01-3.5 299.06-4.13 300.86-5.2L300.86-5.2 300.49-1.7Q298.86-0.68 296.71-0.06 294.56 0.55 291.94 0.55ZM300.19-13.63L300.19-10.58 282.84-10.58 282.84-13.63 300.19-13.63ZM335.41-15.8L335.41 0 331.39 0 331.56-5.93 331.41-6.55 331.41-14.33 331.44-15.75Q331.44-18.73 329.93-20.15 328.41-21.58 325.14-21.58L325.14-21.58Q322.51-21.58 320.33-20.83 318.14-20.08 316.44-19.07L316.44-19.07 316.81-22.53Q317.76-23.1 319.08-23.66 320.39-24.23 322.08-24.6 323.76-24.98 325.79-24.98L325.79-24.98Q328.41-24.98 330.25-24.34 332.09-23.7 333.23-22.5 334.36-21.3 334.89-19.6 335.41-17.9 335.41-15.8L335.41-15.8ZM322.99 0.53L322.99 0.53Q319.36 0.53 317.43-1.24 315.49-3 315.49-6.28L315.49-6.28 315.49-7Q315.49-10.38 317.58-12.04 319.66-13.7 324.21-14.35L324.21-14.35 331.94-15.45 332.16-12.5 324.71-11.43Q321.91-11.03 320.71-10.06 319.51-9.1 319.51-7.23L319.51-7.23 319.51-6.83Q319.51-4.9 320.7-3.88 321.89-2.85 324.26-2.85L324.26-2.85Q326.36-2.85 327.86-3.58 329.36-4.3 330.29-5.53 331.21-6.75 331.54-8.25L331.54-8.25 332.16-5.5 331.39-5.5Q331.04-3.9 330.08-2.53 329.11-1.15 327.39-0.31 325.66 0.53 322.99 0.53ZM386.39-15.73L386.39 0 382.34 0 382.34-15.28Q382.34-17.2 381.85-18.61 381.36-20.03 380.25-20.8 379.14-21.58 377.26-21.58L377.26-21.58Q375.49-21.58 374.19-20.85 372.89-20.13 372.09-18.91 371.29-17.7 370.96-16.15L370.96-16.15 370.34-19.03 370.84-19.03Q371.24-20.6 372.19-21.95 373.14-23.3 374.76-24.13 376.39-24.95 378.79-24.95L378.79-24.95Q381.51-24.95 383.18-23.88 384.84-22.8 385.61-20.74 386.39-18.68 386.39-15.73L386.39-15.73ZM355.91-18.3L355.91 0 351.86 0 351.86-24.4 355.91-24.4 355.74-18.55 355.91-18.3ZM371.14-15.85L371.14 0 367.11 0 367.11-15.28Q367.11-17.2 366.63-18.61 366.14-20.03 365.04-20.8 363.94-21.58 362.06-21.58L362.06-21.58Q360.26-21.58 358.96-20.85 357.66-20.13 356.86-18.89 356.06-17.65 355.74-16.07L355.74-16.07 354.99-18.95 355.89-18.95Q356.26-20.6 357.19-21.96 358.11-23.33 359.7-24.14 361.29-24.95 363.56-24.95L363.56-24.95Q366.94-24.95 368.7-23.2 370.46-21.45 370.91-18.1L370.91-18.1Q371.04-17.6 371.09-17.01 371.14-16.43 371.14-15.85L371.14-15.85ZM410.54 0.55L410.54 0.55Q407.59 0.55 405.39-0.09 403.19-0.73 401.74-1.48L401.74-1.48 401.37-5.23Q403.19-4.28 405.38-3.58 407.57-2.88 410.34-2.88L410.34-2.88Q413.17-2.88 414.59-3.78 416.02-4.67 416.02-6.45L416.02-6.45 416.02-6.73Q416.02-7.88 415.48-8.63 414.94-9.38 413.54-9.95 412.14-10.53 409.57-11.1L409.57-11.1Q406.49-11.78 404.72-12.69 402.94-13.6 402.18-14.95 401.42-16.3 401.42-18.25L401.42-18.25 401.42-18.48Q401.42-21.68 403.64-23.33 405.87-24.98 410.34-24.98L410.34-24.98Q413.22-24.98 415.33-24.33 417.44-23.68 418.79-22.88L418.79-22.88 419.17-19.45Q417.54-20.4 415.44-21.03 413.34-21.65 410.72-21.65L410.72-21.65Q408.82-21.65 407.64-21.26 406.47-20.88 405.94-20.16 405.42-19.45 405.42-18.45L405.42-18.45 405.42-18.25Q405.42-17.15 405.94-16.39 406.47-15.63 407.83-15.06 409.19-14.5 411.62-13.98L411.62-13.98Q414.74-13.35 416.58-12.48 418.42-11.6 419.22-10.26 420.02-8.93 420.02-6.83L420.02-6.83 420.02-6.4Q420.02-2.95 417.62-1.2 415.22 0.55 410.54 0.55ZM469.54-31.28L469.54 0 465.39 0 465.39-31.28 469.54-31.28ZM479.12-31.95L479.12-28.48 455.82-28.48 455.82-31.95 479.12-31.95ZM512.8-15.8L512.8 0 508.77 0 508.95-5.93 508.8-6.55 508.8-14.33 508.82-15.75Q508.82-18.73 507.31-20.15 505.8-21.58 502.52-21.58L502.52-21.58Q499.9-21.58 497.71-20.83 495.52-20.08 493.82-19.07L493.82-19.07 494.2-22.53Q495.15-23.1 496.46-23.66 497.77-24.23 499.46-24.6 501.15-24.98 503.17-24.98L503.17-24.98Q505.8-24.98 507.63-24.34 509.47-23.7 510.61-22.5 511.75-21.3 512.27-19.6 512.8-17.9 512.8-15.8L512.8-15.8ZM500.37 0.53L500.37 0.53Q496.75 0.53 494.81-1.24 492.87-3 492.87-6.28L492.87-6.28 492.87-7Q492.87-10.38 494.96-12.04 497.05-13.7 501.6-14.35L501.6-14.35 509.32-15.45 509.55-12.5 502.1-11.43Q499.3-11.03 498.1-10.06 496.9-9.1 496.9-7.23L496.9-7.23 496.9-6.83Q496.9-4.9 498.08-3.88 499.27-2.85 501.65-2.85L501.65-2.85Q503.75-2.85 505.25-3.58 506.75-4.3 507.67-5.53 508.6-6.75 508.92-8.25L508.92-8.25 509.55-5.5 508.77-5.5Q508.42-3.9 507.46-2.53 506.5-1.15 504.77-0.31 503.05 0.53 500.37 0.53ZM538.42-13.6L549.95 0 545.1 0 535.45-11.38 532.87-11.38 532.87-14.53 535.45-14.53 544.7-24.4 549.5-24.4 538.42-12.63 538.42-13.6ZM533.27-33.13L533.27 0 529.25 0 529.25-33.13 533.27-33.13ZM574.47 0.55L574.47 0.55Q568.9 0.55 566.07-2.18 563.25-4.9 563.25-9.98L563.25-9.98 563.25-14.33Q563.25-19.48 565.87-22.26 568.5-25.05 573.55-25.05L573.55-25.05Q576.95-25.05 579.22-23.79 581.5-22.53 582.65-20.2 583.8-17.88 583.8-14.65L583.8-14.65 583.8-13.75Q583.8-12.95 583.74-12.15 583.67-11.35 583.57-10.58L583.57-10.58 579.85-10.58Q579.9-11.78 579.91-12.85 579.92-13.93 579.92-14.83L579.92-14.83Q579.92-17.05 579.21-18.59 578.5-20.13 577.09-20.94 575.67-21.75 573.55-21.75L573.55-21.75Q570.4-21.75 568.82-19.93 567.25-18.1 567.25-14.7L567.25-14.7 567.25-12.38 567.27-11.88 567.27-9.55Q567.27-8.03 567.72-6.8 568.17-5.58 569.14-4.69 570.1-3.8 571.59-3.34 573.07-2.88 575.12-2.88L575.12-2.88Q577.5-2.88 579.55-3.5 581.6-4.13 583.4-5.2L583.4-5.2 583.02-1.7Q581.4-0.68 579.25-0.06 577.1 0.55 574.47 0.55ZM582.72-13.63L582.72-10.58 565.37-10.58 565.37-13.63 582.72-13.63ZM626.35-31.95L626.35 0 622.2 0 622.2-31.95 626.35-31.95ZM641.03-16.85L641.03-13.38 624.55-13.38 624.55-16.85 641.03-16.85ZM641.4-31.95L641.4-28.48 623.4-28.48 623.4-31.95 641.4-31.95ZM661.15-33.13L661.15 0 657.13 0 657.13-33.13 661.15-33.13ZM682.25-24.4L682.25 0 678.2 0 678.2-24.4 682.25-24.4ZM680.23-28.4L680.23-28.4Q678.98-28.4 678.37-29.06 677.75-29.73 677.75-30.88L677.75-30.88 677.75-31Q677.75-32.18 678.37-32.83 678.98-33.48 680.23-33.48L680.23-33.48Q681.48-33.48 682.1-32.83 682.73-32.18 682.73-31L682.73-31 682.73-30.88Q682.73-29.7 682.1-29.05 681.48-28.4 680.23-28.4ZM708.71-7.3L708.71-7.3Q703.73-7.3 701.07-9.47 698.41-11.65 698.41-15.7L698.41-15.7 698.41-16.32Q698.41-18.85 699.44-20.73 700.48-22.6 702.76-23.66 705.03-24.73 708.71-24.83L708.71-24.83 721.16-25.23 721.16-22.03 713.81-22.28 713.78-22.1Q715.51-21.75 716.61-20.9 717.71-20.05 718.24-18.78 718.78-17.5 718.78-15.8L718.78-15.8 718.78-15.25Q718.78-11.38 716.23-9.34 713.68-7.3 708.71-7.3ZM708.53 6.15L708.53 6.15 709.11 6.15Q711.36 6.15 712.97 5.81 714.58 5.48 715.46 4.75 716.33 4.03 716.33 2.83L716.33 2.83 716.33 2.73Q716.33 1.33 715.32 0.59 714.31-0.15 711.86-0.38L711.86-0.38 704.96-1 706.11-1.05Q704.71-0.85 703.64-0.4 702.58 0.05 701.98 0.79 701.38 1.53 701.38 2.63L701.38 2.63 701.38 2.68Q701.38 3.95 702.26 4.73 703.13 5.5 704.73 5.83 706.33 6.15 708.53 6.15ZM709.03 9.38L709.03 9.38 708.31 9.38Q705.01 9.38 702.62 8.81 700.23 8.25 698.92 6.99 697.61 5.73 697.61 3.6L697.61 3.6 697.61 3.5Q697.61 2 698.32 1 699.03 0 700.24-0.58 701.46-1.15 702.96-1.35L702.96-1.35 702.93-1.5Q700.88-1.85 699.91-2.71 698.93-3.58 698.93-4.95L698.93-4.95 698.93-4.98Q698.93-5.93 699.37-6.6 699.81-7.28 700.69-7.68 701.58-8.08 702.96-8.18L702.96-8.18 702.96-8.68 707.61-7.5 705.71-7.55Q704.01-7.53 703.36-7.14 702.71-6.75 702.71-5.98L702.71-5.98 702.71-5.95Q702.71-5.13 703.63-4.7 704.56-4.28 706.78-4.03L706.78-4.03 712.71-3.43Q716.58-3.03 718.36-1.56 720.13-0.1 720.13 2.75L720.13 2.75 720.13 2.88Q720.13 5.15 718.78 6.6 717.43 8.05 714.96 8.71 712.48 9.38 709.03 9.38ZM708.66-10.3L708.66-10.3Q710.76-10.3 712.14-10.91 713.53-11.53 714.24-12.76 714.96-14 714.96-15.8L714.96-15.8 714.96-16.4Q714.96-18.15 714.27-19.38 713.58-20.6 712.21-21.24 710.83-21.88 708.76-21.88L708.76-21.88 708.61-21.88Q706.36-21.88 704.94-21.19 703.53-20.5 702.89-19.26 702.26-18.03 702.26-16.38L702.26-16.38 702.26-15.8Q702.26-14 702.97-12.78 703.68-11.55 705.11-10.93 706.53-10.3 708.66-10.3ZM755.46-15.63L755.46 0 751.41 0 751.41-15.18Q751.41-17.15 750.87-18.57 750.33-20 749.12-20.79 747.91-21.58 745.81-21.58L745.81-21.58Q743.88-21.58 742.48-20.85 741.08-20.13 740.22-18.89 739.36-17.65 739.01-16.07L739.01-16.07 738.11-18.95 739.16-18.95Q739.53-20.6 740.53-21.96 741.53-23.33 743.22-24.14 744.91-24.95 747.33-24.95L747.33-24.95Q750.23-24.95 752.02-23.85 753.81-22.75 754.63-20.69 755.46-18.63 755.46-15.63L755.46-15.63ZM739.13-17.85L739.13 0 735.08 0 735.08-33.13 739.11-33.13 739.11-25.18 738.98-18.18 739.13-17.85ZM780.86 0.5L780.86 0.5Q778.03 0.5 776.31-0.35 774.58-1.2 773.81-2.93 773.03-4.65 773.03-7.23L773.03-7.23 773.03-22.63 777.03-22.63 777.03-7.7Q777.03-5.3 778.13-4.16 779.23-3.03 781.83-3.03L781.83-3.03Q783.31-3.03 784.67-3.35 786.03-3.68 787.23-4.28L787.23-4.28 786.86-0.8Q785.68-0.2 784.11 0.15 782.53 0.5 780.86 0.5ZM786.98-24.05L786.61-20.8 769.03-20.8 769.03-24.05 786.98-24.05ZM777.11-31.03L776.93-23.65 773.06-23.65 773.03-30.5 777.11-31.03Z" opacity="1" transform="matrix(1,0,0,1,0,0)" fill="#89939e" class="slogan-text-1" data-fill-palette-color="secondary" id="text-1"></path></svg></g></svg></g></svg></g></svg></g><g transform="matrix(1,0,0,1,144.98807027060718,0)"><svg viewBox="0 0 107.5214594587855 89.44579282835147" height="89.44579282835147" width="107.5214594587855"><g><svg xmlns="http://www.w3.org/2000/svg" xmlns:xlink="http://www.w3.org/1999/xlink" version="1.1" x="0" y="0" viewBox="0.93 12.662 97.77399999999999 81.33699999999999" enable-background="new 0 0 100 100" xml:space="preserve" height="89.44579282835147" width="107.5214594587855" class="icon-icon-0" data-fill-palette-color="accent" id="icon-0"><g fill="#89939e" data-fill-palette-color="accent"><rect x="75.63" y="66.311" fill="#89939e" width="3.463" height="4.036" data-fill-palette-color="accent"></rect><rect x="81.253" y="66.311" fill="#89939e" width="3.464" height="4.036" data-fill-palette-color="accent"></rect><rect x="86.878" y="66.311" fill="#89939e" width="3.461" height="4.036" data-fill-palette-color="accent"></rect><rect x="9.295" y="66.311" fill="#89939e" width="3.458" height="4.036" data-fill-palette-color="accent"></rect><rect x="14.918" y="66.311" fill="#89939e" width="3.461" height="4.036" data-fill-palette-color="accent"></rect><rect x="20.541" y="66.311" fill="#89939e" width="3.462" height="4.036" data-fill-palette-color="accent"></rect><path fill="#89939e" d="M70.149 58.81V49.285L75.495 54.63H97.982V51.167H76.927L51.547 25.788V12.662H48.087V26.073L22.995 51.166H1.649V54.629H24.426L29.484 49.572V58.81H0.93V83.614H29.485V85.346H45.102V81.881H32.945V46.11L48.087 30.967V36.892L36.189 48.789 38.637 51.236 48.087 41.787V90.538H41.018V93.999H58.613V90.538H51.547V41.788L60.998 51.236 63.442 48.789 51.547 36.894V30.682L66.69 45.824V81.881H54.186V85.346H70.15V83.614H98.704V58.81zM29.484 80.153H4.39V62.271H29.484zM95.241 80.153H70.149V62.271H95.241z" data-fill-palette-color="accent"></path></g><g fill="#89939e" data-fill-palette-color="accent"><rect x="52.744" y="17.276" fill="#89939e" width="10.381" height="3.462" data-fill-palette-color="accent"></rect></g><g fill="#89939e" data-fill-palette-color="accent"><rect x="52.744" y="21.891" fill="#89939e" width="10.381" height="3.462" data-fill-palette-color="accent"></rect></g></svg></g></svg></g><g></g></svg></g><defs></defs></svg><rect width="395.5199999999999" height="180.16535075221387" fill="none" stroke="none" visibility="hidden"></rect></g></svg></g></svg>